<svg xmlns="http://www.w3.org/2000/svg" width="256" height="256"><path fill-opacity=".016" d="M0 128.004v128.004l128.25-.254 128.25-.254.254-127.75L257.008 0H0v128.004m.485.496c0 70.4.119 99.053.265 63.672.146-35.38.146-92.98 0-128C.604 29.153.485 58.1.485 128.5" fill="#00897b" fill-rule="evenodd"/><path fill-opacity=".287" d="M72 31.838 16.5 63.543V192.426l55.75 31.86L128 256.145l54.75-31.216c30.112-17.169 55.334-31.752 56.048-32.407 1.062-.973.757-6.345-1.667-29.439-1.63-15.538-3.115-28.372-3.298-28.521-.499-.407-57.062-25.27-61.81-27.169-2.258-.904-3.921-1.829-3.694-2.055.226-.226 2.832.551 5.791 1.728 10.108 4.02 65.016 24.934 65.462 24.934.244 0 .326-15.362.181-34.138l-.263-34.137-55-31.466C154.25 14.952 129.05.644 128.5.463c-.55-.181-25.975 13.938-56.5 31.375m28.95 47.782c-15.043 8.578-27.859 15.792-28.479 16.029-.929.357-23.699-12.096-36.221-19.81-1.788-1.101-3.25-1.798-3.25-1.547 0 .25 13.185 8.885 29.3 19.19l29.3 18.736 2.341 15.803c1.287 8.691 2.097 16.438 1.798 17.216-.298.777-5.536 4.285-11.64 7.796-6.105 3.511-11.098 6.628-11.097 6.925.001.298 12.404 7.586 27.563 16.196l27.56 15.654 19.188-11.043a48575.14 48575.14 0 0 1 25.187-14.49c3.3-1.895 6.16-3.606 6.357-3.8.196-.195-5.999-3.539-13.768-7.43l-14.123-7.076.267-25.083.267-25.083 8.5-3.198c4.675-1.759 9.365-3.531 10.423-3.937 1.897-.728 1.897-.756 0-2.073-1.058-.735-9.573-5.728-18.923-11.095-9.35-5.367-18.395-10.595-20.099-11.618l-3.1-1.859L100.95 79.62" fill="#00897b" fill-rule="evenodd"/><path fill-opacity=".128" d="M45.997 47.282c-14.577 8.37-27.079 15.591-27.782 16.047-.856.554 7.678 5.937 25.763 16.25C58.852 88.061 71.479 95 72.038 95c.56 0 10.567-5.473 22.24-12.163 11.672-6.69 23.247-13.188 25.722-14.441 9.416-4.765 10.803-3.289-19.161-20.396-14.932-8.525-27.417-15.598-27.744-15.718-.327-.12-12.521 6.63-27.098 15m155.755 27.051c-19.661 5.592-35.749 10.494-35.75 10.893-.001.399 1.677 1.588 3.729 2.64l3.731 1.914-3.481 1.441c-1.915.792-6.853 2.722-10.973 4.29-6.526 2.482-7.171 2.939-5 3.546 1.37.383 16.217 5.971 32.992 12.417a67326.633 67326.633 0 0 0 41.75 16.028L240 131.81V97.905c0-26.502-.273-33.887-1.25-33.822-.687.046-17.337 4.658-36.998 10.25M16 160.286v31.286l55.495 31.714c30.522 17.443 56.059 31.687 56.75 31.655 2.098-.1 110.264-62.448 110.126-63.478-.071-.528-13.176-7.321-29.123-15.096l-28.994-14.135-8.07 4.634a9503.704 9503.704 0 0 0-25.872 14.962l-17.803 10.328-7.504-3.983c-4.128-2.191-16.955-9.4-28.505-16.021-13.192-7.562-21.353-11.688-21.95-11.095-.522.519-1.565.943-2.317.943-.751 0-12.325-7.425-25.718-16.5-13.394-9.075-24.839-16.5-25.433-16.5-.753 0-1.082 9.523-1.082 31.286" fill="#00897b" fill-rule="evenodd"/><path fill-opacity=".41" d="M77.5 35.815c.55.578 10.393 8.023 21.872 16.544l20.872 15.492 3.378-1.611c1.858-.886 3.375-1.865 3.371-2.175-.005-.474-13.47-8.309-44.993-26.182-3.025-1.716-5.05-2.646-4.5-2.068m122 39.739c-15.95 4.582-30.088 8.609-31.418 8.949-2.351.602-2.314.683 1.353 2.896l3.772 2.276 27.974-10.78c15.386-5.929 28.502-10.996 29.147-11.259 4.951-2.021-6.184.839-30.828 7.918m-178 57.238c1.1 1.106 10.285 9.232 20.412 18.058 19.132 16.674 18.716 16.444 23.412 12.933 1.654-1.238-.382-2.828-22-17.183-13.103-8.701-22.924-14.914-21.824-13.808m150.116 34.454-6.883 4.071 33.883 9.348c18.636 5.141 35.009 9.588 36.384 9.881 1.375.294-10.284-5.784-25.909-13.506-15.625-7.722-28.9-14.001-29.5-13.952-.6.048-4.189 1.919-7.975 4.158m-71.797 35.908C77.267 219.864 73.88 222.707 82 218.112c29.575-16.738 44.988-25.705 44.993-26.177.004-.31-1.537-1.301-3.424-2.2l-3.43-1.636-20.32 15.055" fill="#00897b" fill-rule="evenodd"/></svg>